<svg id="visual" viewBox="0 0 900 600" width="900" height="600" xmlns="http://www.w3.org/2000/svg" xmlns:xlink="http://www.w3.org/1999/xlink" version="1.1"><path d="M0 395L21.5 400C43 405 86 415 128.8 420.3C171.7 425.7 214.3 426.3 257.2 419.8C300 413.3 343 399.7 385.8 396C428.7 392.3 471.3 398.7 514.2 399.5C557 400.3 600 395.7 642.8 394.8C685.7 394 728.3 397 771.2 390.7C814 384.3 857 368.7 878.5 360.8L900 353L900 601L878.5 601C857 601 814 601 771.2 601C728.3 601 685.7 601 642.8 601C600 601 557 601 514.2 601C471.3 601 428.7 601 385.8 601C343 601 300 601 257.2 601C214.3 601 171.7 601 128.8 601C86 601 43 601 21.5 601L0 601Z" fill="#ec6ead"></path><path d="M0 408L21.5 416.8C43 425.7 86 443.3 128.8 448C171.7 452.7 214.3 444.3 257.2 446C300 447.7 343 459.3 385.8 463.8C428.7 468.3 471.3 465.7 514.2 463.5C557 461.3 600 459.7 642.8 454.5C685.7 449.3 728.3 440.7 771.2 431.5C814 422.3 857 412.7 878.5 407.8L900 403L900 601L878.5 601C857 601 814 601 771.2 601C728.3 601 685.7 601 642.8 601C600 601 557 601 514.2 601C471.3 601 428.7 601 385.8 601C343 601 300 601 257.2 601C214.3 601 171.7 601 128.8 601C86 601 43 601 21.5 601L0 601Z" fill="#d177c8"></path><path d="M0 443L21.5 454.2C43 465.3 86 487.7 128.8 497.2C171.7 506.7 214.3 503.3 257.2 500.5C300 497.7 343 495.3 385.8 491.5C428.7 487.7 471.3 482.3 514.2 485.3C557 488.3 600 499.7 642.8 494.5C685.7 489.3 728.3 467.7 771.2 458.2C814 448.7 857 451.3 878.5 452.7L900 454L900 601L878.5 601C857 601 814 601 771.2 601C728.3 601 685.7 601 642.8 601C600 601 557 601 514.2 601C471.3 601 428.7 601 385.8 601C343 601 300 601 257.2 601C214.3 601 171.7 601 128.8 601C86 601 43 601 21.5 601L0 601Z" fill="#ab82dc"></path><path d="M0 508L21.5 511.5C43 515 86 522 128.8 519.8C171.7 517.7 214.3 506.3 257.2 505.8C300 505.3 343 515.7 385.8 520C428.7 524.3 471.3 522.7 514.2 522.7C557 522.7 600 524.3 642.8 518.2C685.7 512 728.3 498 771.2 500.2C814 502.3 857 520.7 878.5 529.8L900 539L900 601L878.5 601C857 601 814 601 771.2 601C728.3 601 685.7 601 642.8 601C600 601 557 601 514.2 601C471.3 601 428.7 601 385.8 601C343 601 300 601 257.2 601C214.3 601 171.7 601 128.8 601C86 601 43 601 21.5 601L0 601Z" fill="#7a8ce6"></path><path d="M0 571L21.5 565.2C43 559.3 86 547.7 128.8 540.7C171.7 533.7 214.3 531.3 257.2 529.7C300 528 343 527 385.8 531C428.7 535 471.3 544 514.2 543.8C557 543.7 600 534.3 642.8 530C685.7 525.7 728.3 526.3 771.2 526.8C814 527.3 857 527.7 878.5 527.8L900 528L900 601L878.5 601C857 601 814 601 771.2 601C728.3 601 685.7 601 642.8 601C600 601 557 601 514.2 601C471.3 601 428.7 601 385.8 601C343 601 300 601 257.2 601C214.3 601 171.7 601 128.8 601C86 601 43 601 21.5 601L0 601Z" fill="#3494e6"></path></svg>