<svg id="visual" viewBox="0 0 540 960" width="540" height="960" xmlns="http://www.w3.org/2000/svg" xmlns:xlink="http://www.w3.org/1999/xlink" version="1.1"><path d="M105 0L96.3 17.8C87.7 35.7 70.3 71.3 74.2 106.8C78 142.3 103 177.7 110.3 213.2C117.7 248.7 107.3 284.3 95.2 320C83 355.7 69 391.3 73.2 426.8C77.3 462.3 99.7 497.7 105 533.2C110.3 568.7 98.7 604.3 89 640C79.3 675.7 71.7 711.3 67.3 746.8C63 782.3 62 817.7 68.7 853.2C75.3 888.7 89.7 924.3 96.8 942.2L104 960L0 960L0 942.2C0 924.3 0 888.7 0 853.2C0 817.7 0 782.3 0 746.8C0 711.3 0 675.7 0 640C0 604.3 0 568.7 0 533.2C0 497.7 0 462.3 0 426.8C0 391.3 0 355.7 0 320C0 284.3 0 248.7 0 213.2C0 177.7 0 142.3 0 106.8C0 71.3 0 35.7 0 17.8L0 0Z" fill="#3494E6" stroke-linecap="round" stroke-linejoin="miter"></path></svg>