<?xml version="1.0" encoding="utf-8"?>
<!-- Generator: Adobe Illustrator 26.5.0, SVG Export Plug-In . SVG Version: 6.00 Build 0)  -->
<svg version="1.1" id="visual" xmlns="http://www.w3.org/2000/svg" xmlns:xlink="http://www.w3.org/1999/xlink" x="0px" y="0px"
	 viewBox="0 0 900 600" style="enable-background:new 0 0 900 600;" xml:space="preserve">
<style type="text/css">
	.st0{fill:#3494E6;}
</style>
<path class="st0" d="M159,0l7.8,14.3c7.9,14.4,23.5,43,26.4,71.5c2.8,28.5-7.2,56.9-19.9,85.4c-12.6,28.5-28,57.1-30.6,85.8
	c-2.7,28.7,7.3,57.3,5.8,86s-14.5,57.3,3,85.8s65.5,56.9,90.3,85.4c24.9,28.5,26.5,57.1,27.4,71.5L270,600H0v-14.3
	c0-14.4,0-43,0-71.5s0-56.9,0-85.4s0-57.1,0-85.8s0-57.3,0-86s0-57.3,0-85.8s0-56.9,0-85.4s0-57.1,0-71.5V0H159z"/>
</svg>
