<svg id="visual" viewBox="0 0 900 600" width="900" height="600" xmlns="http://www.w3.org/2000/svg" xmlns:xlink="http://www.w3.org/1999/xlink" version="1.1"><rect x="0" y="0" width="900" height="600" fill="#FFFFFF"></rect><path d="M283 0L268.7 14.3C254.3 28.7 225.7 57.3 203.2 85.8C180.7 114.3 164.3 142.7 172.5 171.2C180.7 199.7 213.3 228.3 210.2 257C207 285.7 168 314.3 177 343C186 371.7 243 400.3 247.7 428.8C252.3 457.3 204.7 485.7 186.5 514.2C168.3 542.7 179.7 571.3 185.3 585.7L191 600L0 600L0 585.7C0 571.3 0 542.7 0 514.2C0 485.7 0 457.3 0 428.8C0 400.3 0 371.7 0 343C0 314.3 0 285.7 0 257C0 228.3 0 199.7 0 171.2C0 142.7 0 114.3 0 85.8C0 57.3 0 28.7 0 14.3L0 0Z" fill="#3494E6" stroke-linecap="round" stroke-linejoin="miter"></path></svg>